HIERARCHY
ROOT Hips
{
	OFFSET -3.958830 18.904000 13.208200
	CHANNELS 6 Xposition Yposition Zposition Zrotation Yrotation Xrotation 
	JOINT LHipJoint
	{
		OFFSET 0.000000 0.000000 0.000000
		CHANNELS 3 Zrotation Yrotation Xrotation
		JOINT LeftUpLeg
		{
			OFFSET 1.800000 -1.400000 0.085000
			CHANNELS 3 Zrotation Yrotation Xrotation
			JOINT LeftLeg
			{
				OFFSET 2.215000 -6.000000 0.000000
				CHANNELS 3 Zrotation Yrotation Xrotation
				JOINT LeftFoot
				{
					OFFSET 2.500000 -6.900000 0.000000
					CHANNELS 3 Zrotation Yrotation Xrotation
					JOINT LeftToeBase
					{
						OFFSET 0.200000 -0.500000 1.950000
						CHANNELS 3 Zrotation Yrotation Xrotation
						End Site
						{
							OFFSET 0.000000 0.000000 0.000000
						}
					}
				}
			}
		}
	}
	JOINT RHipJoint
	{
		OFFSET 0.000000 0.000000 0.000000
		CHANNELS 3 Zrotation Yrotation Xrotation
		JOINT RightUpLeg
		{
			OFFSET -1.800000 -1.400000 0.085000
			CHANNELS 3 Zrotation Yrotation Xrotation
			JOINT RightLeg
			{
				OFFSET -2.215000 -6.000000 0.000000
				CHANNELS 3 Zrotation Yrotation Xrotation
				JOINT RightFoot
				{
					OFFSET -2.500000 -6.900000 0.000000
					CHANNELS 3 Zrotation Yrotation Xrotation
					JOINT RightToeBase
					{
						OFFSET -0.200000 -0.500000 1.950000
						CHANNELS 3 Zrotation Yrotation Xrotation
						End Site
						{
							OFFSET 0.000000 0.000000 0.000000
						}
					}
				}
			}
		}
	}
	JOINT LowerBack
	{
		OFFSET 0.000000 0.000000 0.000000
		CHANNELS 3 Zrotation Yrotation Xrotation
		JOINT Spine
		{
			OFFSET -0.087000 1.940000 -0.288900
			CHANNELS 3 Zrotation Yrotation Xrotation
			JOINT Spine1
			{
				OFFSET 0.000000 1.950000 0.060000
				CHANNELS 3 Zrotation Yrotation Xrotation
				JOINT Neck
				{
					OFFSET 0.000000 0.000000 0.000000
					CHANNELS 3 Zrotation Yrotation Xrotation
					JOINT Neck1
					{
						OFFSET 0.000000 1.600000 0.340000
						CHANNELS 3 Zrotation Yrotation Xrotation
						JOINT Head
						{
							OFFSET 0.000000 1.667000 -0.240000
							CHANNELS 3 Zrotation Yrotation Xrotation
							End Site
							{
								OFFSET 0.000000 0.000000 0.000000
							}
						}
					}
				}
				JOINT LeftShoulder
				{
					OFFSET 0.000000 0.000000 0.000000
					CHANNELS 3 Zrotation Yrotation Xrotation
					JOINT LeftArm
					{
						OFFSET 2.700000 1.550000 -0.730000
						CHANNELS 3 Zrotation Yrotation Xrotation
						JOINT LeftForeArm
						{
							OFFSET 5.450000 0.000000 0.000000
							CHANNELS 3 Zrotation Yrotation Xrotation
							JOINT LeftHand
							{
								OFFSET 3.450000 0.000000 0.000000
								CHANNELS 3 Zrotation Yrotation Xrotation
								JOINT LeftHandIndex1
								{
									OFFSET 0.750000 0.000000 0.000000
									CHANNELS 3 Zrotation Yrotation Xrotation
									End Site
									{
										OFFSET 0.000000 0.000000 0.000000
									}
								}
							}
						}
					}
				}
				JOINT RightShoulder
				{
					OFFSET 0.000000 0.000000 0.000000
					CHANNELS 3 Zrotation Yrotation Xrotation
					JOINT RightArm
					{
						OFFSET -2.700000 1.550000 -0.730000
						CHANNELS 3 Zrotation Yrotation Xrotation
						JOINT RightForeArm
						{
							OFFSET -5.450000 0.000000 0.000000
							CHANNELS 3 Zrotation Yrotation Xrotation
							JOINT RightHand
							{
								OFFSET -3.450000 0.000000 0.000000
								CHANNELS 3 Zrotation Yrotation Xrotation
								JOINT RightHandIndex1
								{
									OFFSET -0.750000 0.000000 0.000000
									CHANNELS 3 Zrotation Yrotation Xrotation
									End Site
									{
										OFFSET 0.000000 0.000000 0.000000
									}
								}
							}
						}
					}
				}
			}
		}
	}
}
MOTION
Frames: 9
Frame Time: 0.016667
-2.263020 16.324340 -7.208560 -30.486998 -21.115438 27.048352 -16.336412 9.439912 5.708125 22.409053 -17.304235 -39.430546 -41.096623 32.929663 54.457913 2.485974 14.862406 -0.390637 0.379430 0.369630 0.546060 18.156264 -4.397820 6.375443 31.175037 24.437999 -57.680120 -14.308913 3.392433 53.281276 -1.120806 -6.168748 2.023416 0.113460 -0.378650 0.139660 -2.425450 -5.914715 -10.820101 -23.642103 9.686767 75.439707 11.520631 0.861942 6.283387 -2.432267 -1.326634 -12.026402 -5.036636 18.087158 40.023873 -10.909020 22.860920 -23.111630 -15.308610 -23.436617 2.569897 17.121570 -14.244377 -6.081563 3.702381 -1.399903 -0.849103 -3.946624 2.469115 0.460040 -0.196180 0.428430 -0.053810 20.560692 23.293445 11.213790 24.160182 -2.848724 -10.037968 16.028771 38.566172 3.999938 2.196791 -1.497642 0.037560 -0.036490 -0.173260 -0.259270 
-2.276980 16.276250 -7.178830 -31.911619 -21.308764 29.493610 -16.391834 9.321149 5.658506 23.292652 -16.189541 -40.913073 -39.695317 31.542520 53.236569 2.379238 14.491910 -0.295413 0.380930 0.375650 0.544930 18.164217 -4.082765 6.666310 32.114014 26.384462 -59.009187 -14.485369 3.856612 54.020924 -1.150700 -6.291467 2.000577 0.110930 -0.368320 0.133790 -2.379061 -6.131719 -10.922478 -23.532008 10.556086 75.343987 12.689657 1.762047 6.339115 -2.533278 -1.503050 -12.169111 -5.165035 18.258118 38.679844 -11.004110 22.774000 -23.222320 -14.724010 -23.273257 2.765844 17.525329 -13.870820 -5.938008 2.960448 -0.740494 -0.865623 -3.944299 2.445335 0.443270 -0.194760 0.429010 -0.031360 20.262231 23.699186 11.381919 23.845371 -2.574653 -9.705464 14.068574 37.357296 3.460105 2.209814 -1.489235 0.040710 -0.028590 -0.194460 -0.243570 
-2.307530 16.184900 -7.154800 -32.831562 -20.759718 32.714066 -16.474241 9.207681 5.658576 24.116299 -15.458162 -43.090022 -38.428176 30.312068 52.148677 2.285142 14.160439 -0.203994 0.364910 0.362620 0.512690 18.153937 -3.698734 6.943250 32.190626 28.757528 -62.176873 -14.443021 4.328349 56.031475 -1.205879 -6.637432 1.905167 0.098910 -0.336150 0.127130 -2.256064 -6.559690 -11.048985 -24.115192 11.371640 75.151186 14.770796 1.917495 6.201167 -2.784770 -1.728284 -12.659371 -5.287750 19.021436 37.566024 -9.911100 22.941950 -22.383030 -13.779913 -23.058726 3.645677 17.793490 -11.764153 -5.455133 1.684593 0.245191 -0.952551 -3.951622 2.389246 0.424520 -0.187190 0.412230 -0.010460 20.028306 23.930048 11.121101 23.156720 -1.137799 -9.190290 11.549652 35.989572 2.921444 2.227224 -1.469871 0.038750 -0.021980 -0.197630 -0.221340 
-2.308630 16.107150 -7.127450 -35.618885 -21.241460 37.245420 -16.586202 8.854483 5.762943 25.557158 -14.411515 -46.901212 -36.385506 30.769655 54.028492 2.318842 14.393073 -0.251398 0.313080 0.309530 0.474930 18.161712 -3.148692 7.327649 33.541506 31.867460 -63.440409 -14.934565 5.117297 57.254699 -1.242969 -6.893428 1.842857 0.066610 -0.298250 0.117840 -2.164987 -6.864660 -11.293593 -24.360669 12.880662 74.200136 16.293932 2.984444 6.184000 -2.772051 -1.698759 -13.134458 -4.793071 20.168617 36.864042 -9.850830 24.221070 -21.232400 -12.892909 -23.031677 4.387006 18.166608 -10.188965 -5.298765 0.832834 1.803535 -1.140119 -4.025350 2.296231 0.398770 -0.161820 0.379530 -0.015490 19.316111 24.504448 11.044604 22.344704 0.300823 -8.607307 9.474613 34.689891 2.552995 2.250236 -1.434231 0.024180 -0.023340 -0.177760 -0.214730 
-2.334810 16.041960 -7.100110 -38.483572 -20.642181 40.879888 -16.656586 8.553443 5.892963 26.804539 -13.655044 -50.286709 -33.419319 31.671895 57.804792 2.374849 14.893851 -0.377444 0.329830 0.318770 0.464110 18.184481 -2.719237 7.611575 33.865707 34.569034 -64.779365 -13.130631 4.602504 58.662557 -1.275772 -7.034852 1.806372 0.082240 -0.283460 0.114560 -2.094141 -7.040306 -11.472269 -24.379171 13.988663 73.729154 17.769365 4.175163 6.462752 -3.190669 -2.764007 -13.218820 -6.832997 20.100722 35.913542 -8.899890 22.680650 -20.800540 -11.720478 -22.041569 4.637612 17.908144 -9.276199 -4.993297 0.320622 1.872833 -1.218800 -4.006736 2.290657 0.401790 -0.165630 0.367730 0.000060 19.175671 24.917633 11.048796 21.142231 0.908953 -8.593901 8.215065 35.036463 2.432540 2.226916 -1.457256 0.020350 -0.005520 -0.177910 -0.205350 
-2.354210 15.998450 -7.064380 -40.882243 -20.041521 44.734626 -16.747132 8.239207 6.116903 29.341043 -11.956284 -53.444708 -33.617948 32.398522 57.526934 2.389267 14.953811 -0.380970 0.315090 0.297760 0.446510 18.187733 -2.294105 7.814981 33.763312 37.042611 -66.314786 -11.515692 4.014392 59.918054 -1.301909 -7.182161 1.776512 0.061960 -0.271780 0.111390 -1.973646 -7.285871 -11.665296 -24.795830 15.293922 72.966490 19.510190 4.886939 6.439279 -3.361922 -3.634310 -13.642835 -8.470519 19.950915 35.155295 -9.214670 21.793570 -20.154200 -10.674404 -21.437015 5.330950 16.931779 -7.536687 -4.682726 0.559848 1.588437 -1.180869 -4.002068 2.279194 0.386450 -0.165750 0.356930 0.008300 18.743100 25.526443 10.904670 19.920674 1.945585 -8.582849 8.212875 35.447591 2.623958 2.234202 -1.460758 0.027400 -0.003120 -0.175630 -0.190020 
-2.357730 15.966510 -7.014540 -42.180548 -18.865403 46.964335 -16.761442 8.104054 6.188269 30.306292 -11.147791 -54.524492 -33.076667 32.874173 58.250458 2.373190 15.101587 -0.424821 0.315680 0.288780 0.454710 18.211404 -2.124282 7.913096 32.982501 38.521908 -67.265728 -10.109995 3.224776 62.368520 -1.388603 -7.584111 1.654636 0.069770 -0.261200 0.106060 -1.935876 -7.308576 -11.748402 -24.276668 15.486202 72.635758 19.788377 5.393802 7.126936 -3.651861 -4.189179 -13.671737 -9.739991 19.675585 35.761501 -9.325090 20.981840 -19.904670 -9.921813 -21.271980 5.199452 16.626798 -8.301581 -4.835409 1.652274 2.836211 -1.304936 -4.079330 2.218282 0.392820 -0.159960 0.347020 -0.000670 18.566137 26.027189 10.951379 19.276627 2.453161 -8.917381 7.513420 36.701251 2.601749 2.199981 -1.469317 0.013860 0.023090 -0.159460 -0.198610 
-2.334220 15.954440 -6.940640 -42.475426 -17.577964 48.843839 -16.682620 8.097650 6.203370 30.252455 -10.904824 -54.737061 -31.371706 32.625950 59.404960 2.305636 15.182799 -0.462922 0.335400 0.314100 0.445420 18.270280 -2.291440 7.836136 29.438968 39.296844 -70.328664 -6.939090 1.205496 64.397534 -1.433945 -7.910081 1.548598 0.111960 -0.230230 0.097940 -2.051753 -6.989348 -11.681752 -22.564721 14.156000 72.930352 18.350769 5.287662 7.922203 -4.119813 -5.030691 -13.787755 -11.675556 19.176229 35.382892 -8.210850 19.038600 -19.363430 -8.912092 -21.430830 4.975879 16.682361 -9.099852 -5.097061 3.469602 3.456460 -1.350712 -4.164667 2.181458 0.384620 -0.144330 0.322750 0.002970 18.380553 26.701478 10.998695 18.620699 3.091088 -9.362986 6.100465 38.351749 2.305994 2.141901 -1.498725 -0.000980 0.065590 -0.141200 -0.192740 
-2.378910 15.948560 -6.861810 -41.437671 -15.258534 48.865003 -16.624969 8.331045 6.223109 29.518654 -11.205540 -53.992035 -32.477876 32.241559 57.750926 2.236865 14.961692 -0.426362 0.397660 0.381780 0.478060 18.262292 -2.574956 7.566138 25.166573 39.023449 -73.653444 -2.305252 -1.945779 66.947097 -1.549901 -8.478535 1.358268 0.165270 -0.247580 0.107850 -2.023733 -6.941597 -11.522925 -21.236997 13.154942 74.031815 18.360478 5.176830 8.265682 -4.536600 -5.567164 -13.061762 -12.976153 18.452452 35.387881 -7.760740 17.489530 -19.221750 -9.035983 -20.888935 4.338453 16.874325 -10.162939 -5.307803 5.442762 1.703349 -1.195983 -4.111379 2.319083 0.373330 -0.146630 0.327500 0.011740 19.092755 26.589426 10.619825 16.717183 4.012965 -9.580885 6.643787 39.828371 2.493246 2.118340 -1.574838 0.018020 0.062160 -0.162760 -0.190680 
